<svg width="245" height="135" viewBox="0 0 245 135" fill="none" xmlns="http://www.w3.org/2000/svg">
<path d="M96.086 20.136C90.434 19.956 84.944 19.848 79.616 19.812V48H66.116V19.812C60.752 19.848 55.28 19.956 49.7 20.136V8.796H96.086V20.136ZM121.244 48.54C113 48.54 106.934 46.758 103.046 43.194C99.1577 39.594 97.2137 34.554 97.2137 28.074C97.2137 21.666 99.1397 16.662 102.992 13.062C106.88 9.462 112.964 7.662 121.244 7.662C129.56 7.662 135.644 9.462 139.496 13.062C143.384 16.662 145.328 21.666 145.328 28.074C145.328 34.59 143.402 39.63 139.55 43.194C135.698 46.758 129.596 48.54 121.244 48.54ZM121.244 37.524C125.24 37.524 128.12 36.768 129.884 35.256C131.648 33.708 132.53 31.314 132.53 28.074C132.53 24.906 131.648 22.548 129.884 21C128.12 19.452 125.24 18.678 121.244 18.678C117.284 18.678 114.422 19.452 112.658 21C110.894 22.548 110.012 24.906 110.012 28.074C110.012 31.278 110.894 33.654 112.658 35.202C114.422 36.75 117.284 37.524 121.244 37.524ZM174.148 8.85C181.312 8.85 186.298 10.128 189.106 12.684C191.914 15.204 193.318 18.768 193.318 23.376C193.318 26.544 192.76 29.244 191.644 31.476C190.528 33.672 188.566 35.4 185.758 36.66C182.95 37.884 179.08 38.496 174.148 38.496H162.916V48H149.632C149.92 41.016 150.064 34.482 150.064 28.398C150.064 22.314 149.92 15.78 149.632 8.796H162.916V8.85H174.148ZM170.368 28.074C173.356 28.074 175.588 27.966 177.064 27.75C178.576 27.498 179.62 27.066 180.196 26.454C180.808 25.842 181.114 24.942 181.114 23.754C181.114 22.566 180.826 21.684 180.25 21.108C179.71 20.496 178.684 20.082 177.172 19.866C175.696 19.65 173.428 19.542 170.368 19.542H162.916V28.074H170.368ZM65.8199 56.202C72.5879 56.202 77.9339 57.03 81.8579 58.686C85.7819 60.306 88.5179 62.574 90.0659 65.49C91.6499 68.37 92.4419 71.916 92.4419 76.128C92.4419 80.124 91.5419 83.616 89.7419 86.604C87.9419 89.592 85.2419 91.914 81.6419 93.57C78.0419 95.19 73.6139 96 68.3579 96C65.1539 96 61.8959 96 58.5839 96C55.2719 96 51.9239 95.982 48.5399 95.946C48.8279 88.854 48.9719 82.248 48.9719 76.128C48.9719 69.936 48.8279 63.474 48.5399 56.742C52.8239 56.382 58.5839 56.202 65.8199 56.202ZM69.8699 85.254C73.2179 85.254 75.4499 84.444 76.5659 82.824C77.6819 81.204 78.2399 78.972 78.2399 76.128C78.2399 73.392 77.6459 71.178 76.4579 69.486C75.3059 67.794 73.1099 66.948 69.8699 66.948C66.3779 66.948 63.7679 67.056 62.0399 67.272V85.254H69.8699ZM120.769 96.54C112.525 96.54 106.459 94.758 102.571 91.194C98.6831 87.594 96.7391 82.554 96.7391 76.074C96.7391 69.666 98.6651 64.662 102.517 61.062C106.405 57.462 112.489 55.662 120.769 55.662C129.085 55.662 135.169 57.462 139.021 61.062C142.909 64.662 144.853 69.666 144.853 76.074C144.853 82.59 142.927 87.63 139.075 91.194C135.223 94.758 129.121 96.54 120.769 96.54ZM120.769 85.524C124.765 85.524 127.645 84.768 129.409 83.256C131.173 81.708 132.055 79.314 132.055 76.074C132.055 72.906 131.173 70.548 129.409 69C127.645 67.452 124.765 66.678 120.769 66.678C116.809 66.678 113.947 67.452 112.183 69C110.419 70.548 109.537 72.906 109.537 76.074C109.537 79.278 110.419 81.654 112.183 83.202C113.947 84.75 116.809 85.524 120.769 85.524ZM171.405 73.644H194.463V96H184.959L183.825 86.442C182.745 89.862 180.819 92.4 178.047 94.056C175.275 95.712 171.891 96.54 167.895 96.54C164.259 96.54 161.019 95.73 158.175 94.11C155.367 92.49 153.153 90.168 151.533 87.144C149.949 84.12 149.157 80.592 149.157 76.56C149.157 70.116 151.083 65.022 154.935 61.278C158.787 57.534 164.781 55.662 172.917 55.662C177.561 55.662 181.647 56.418 185.175 57.93C188.739 59.442 191.763 61.782 194.247 64.95C192.627 65.778 189.459 67.434 184.743 69.918L183.393 70.674C181.989 69.27 180.351 68.226 178.479 67.542C176.607 66.822 174.627 66.462 172.539 66.462C169.083 66.462 166.509 67.38 164.817 69.216C163.125 71.016 162.279 73.248 162.279 75.912C162.279 78.792 163.179 81.114 164.979 82.878C166.815 84.642 169.605 85.524 173.349 85.524C174.969 85.524 176.535 85.29 178.047 84.822C179.595 84.354 180.891 83.544 181.935 82.392H171.405V73.644Z" fill="#FBF6EB"/>
<path d="M63.79 124.927C63.1958 124.775 62.6262 124.554 62.0813 124.263C61.5493 123.976 61.0888 123.624 60.6998 123.208C60.3108 122.792 60.0418 122.31 59.8928 121.763C59.7471 121.202 59.7554 120.578 59.9177 119.89L61.9134 120.401C61.8969 120.466 61.8863 120.614 61.8818 120.847C61.8806 121.067 61.939 121.323 62.0571 121.614C62.188 121.909 62.4306 122.199 62.7848 122.482C63.1518 122.769 63.6842 123.001 64.3817 123.18C65.1438 123.375 65.7421 123.376 66.1764 123.185C66.6238 122.996 66.8887 122.741 66.9714 122.418C67.0639 122.056 67.0074 121.739 66.802 121.466C66.6127 121.184 66.3215 120.923 65.9283 120.685C65.5513 120.437 65.1258 120.191 64.6517 119.946C64.1906 119.704 63.7264 119.447 63.259 119.176C62.8078 118.896 62.4069 118.58 62.0563 118.229C61.722 117.868 61.4898 117.457 61.3598 116.998C61.2297 116.538 61.2569 116.001 61.4414 115.388C61.7406 114.487 62.3633 113.882 63.3092 113.574C64.2552 113.265 65.3999 113.283 66.7433 113.627C67.5183 113.825 68.1989 114.151 68.785 114.603C69.3872 115.046 69.8175 115.597 70.0759 116.255C70.3504 116.903 70.3786 117.654 70.1605 118.506L68.2423 118.015C68.3447 117.615 68.3369 117.269 68.2189 116.977C68.1041 116.672 67.9212 116.419 67.6701 116.217C67.4352 116.006 67.1677 115.841 66.8676 115.723C66.5708 115.592 66.2997 115.495 66.0542 115.432C65.4084 115.267 64.8442 115.24 64.3618 115.35C63.8922 115.464 63.6029 115.734 63.4939 116.16C63.3884 116.519 63.4368 116.841 63.6389 117.126C63.8411 117.412 64.1388 117.674 64.532 117.912C64.9252 118.151 65.3605 118.386 65.8378 118.618C66.3151 118.85 66.7859 119.108 67.25 119.392C67.7174 119.663 68.1264 119.974 68.4769 120.326C68.8308 120.664 69.0711 121.069 69.1978 121.542C69.3279 122.002 69.2909 122.55 69.0869 123.186C68.8006 124.09 68.1715 124.693 67.1997 124.995C66.2312 125.284 65.0946 125.261 63.79 124.927Z" fill="#FFF6EA"/>
<path d="M79.2716 126.336L78.934 128.043L74.0094 127.069L74.3469 125.362L75.838 125.657L77.3435 118.044L75.8523 117.749L76.1938 116.023L81.1184 116.997L80.777 118.723L79.3251 118.436L77.8197 126.049L79.2716 126.336Z" fill="#FFF6EA"/>
<path d="M94.3131 119.039L96.4129 119.331L94.8624 130.484L91.0194 129.949L88.6227 119.157L88.5831 119.151L87.1565 129.412L85.0765 129.123L86.627 117.971L90.1927 118.466L92.8469 129.295L92.8865 129.3L94.3131 119.039Z" fill="#FFF6EA"/>
<path d="M105.51 131.609C104.46 131.534 103.524 131.252 102.703 130.766C101.884 130.266 101.252 129.572 100.808 128.684C100.377 127.798 100.208 126.716 100.3 125.439C100.403 124.19 100.732 123.145 101.287 122.302C101.842 121.46 102.562 120.843 103.446 120.452C104.329 120.061 105.316 119.905 106.407 119.984C107.444 120.058 108.315 120.308 109.02 120.733C109.724 121.158 110.273 121.706 110.666 122.375C111.072 123.046 111.313 123.786 111.389 124.593L109.294 124.442C109.243 123.851 109.057 123.376 108.735 123.019C108.427 122.649 108.052 122.381 107.61 122.216C107.168 122.037 106.721 121.931 106.269 121.899C105.085 121.814 104.151 122.08 103.464 122.699C102.791 123.319 102.411 124.235 102.324 125.445C102.232 126.735 102.466 127.747 103.028 128.483C103.603 129.22 104.483 129.63 105.666 129.716C106.159 129.751 106.643 129.712 107.119 129.6C107.596 129.473 108.013 129.249 108.37 128.928C108.728 128.592 108.976 128.129 109.112 127.537L111.226 127.689C111.021 128.503 110.668 129.22 110.169 129.839C109.684 130.446 109.049 130.915 108.263 131.246C107.492 131.565 106.574 131.686 105.51 131.609Z" fill="#FFF6EA"/>
<path d="M118.229 130.32L124.449 130.377L124.434 132.017L116.194 131.941L116.298 120.681L124.337 120.755L124.321 122.515L118.301 122.46L118.274 125.42L122.894 125.462L122.879 127.142L118.259 127.1L118.229 130.32Z" fill="#FFF6EA"/>
<path d="M144.254 129.188L144.396 130.943L139.034 131.378L138.891 129.624L140.725 129.475L140.155 122.458C140.088 122.945 139.945 123.331 139.728 123.616C139.509 123.888 139.271 124.088 139.014 124.216C138.757 124.344 138.523 124.43 138.312 124.474C138.101 124.504 137.962 124.522 137.895 124.528L137.716 122.315C137.796 122.322 137.969 122.308 138.234 122.273C138.498 122.225 138.777 122.122 139.072 121.964C139.38 121.805 139.642 121.57 139.857 121.258C140.073 120.946 140.172 120.524 140.155 119.99L141.95 119.844L142.719 129.313L144.254 129.188Z" fill="#FFF6EA"/>
<path d="M154.212 129.979C153.511 130.074 152.905 130.068 152.393 129.963C151.881 129.857 151.45 129.707 151.101 129.512C150.75 129.304 150.472 129.086 150.266 128.858C150.06 128.63 149.906 128.436 149.803 128.275C149.714 128.112 149.67 128.031 149.67 128.031L151.593 127.326C151.593 127.326 151.672 127.417 151.831 127.597C151.988 127.764 152.239 127.925 152.583 128.08C152.925 128.223 153.386 128.254 153.968 128.176C154.496 128.104 154.951 127.881 155.33 127.507C155.724 127.131 155.993 126.583 156.137 125.864C156.281 125.131 156.255 124.193 156.059 123.049C156.064 123.183 156.018 123.391 155.922 123.673C155.825 123.955 155.657 124.254 155.417 124.569C155.191 124.882 154.886 125.165 154.503 125.419C154.119 125.659 153.629 125.82 153.034 125.9C152.162 126.018 151.412 125.945 150.784 125.68C150.168 125.4 149.69 125 149.351 124.481C149.012 123.962 148.82 123.389 148.775 122.763C148.729 122.123 148.834 121.504 149.089 120.904C149.357 120.303 149.785 119.781 150.371 119.338C150.97 118.894 151.738 118.608 152.677 118.481C153.839 118.324 154.808 118.469 155.581 118.916C156.355 119.363 156.953 120.008 157.377 120.853C157.799 121.684 158.065 122.609 158.176 123.63C158.289 124.665 158.246 125.639 158.047 126.554C157.846 127.456 157.438 128.217 156.822 128.839C156.218 129.445 155.348 129.826 154.212 129.979ZM153.327 124.63C154.106 124.524 154.695 124.202 155.093 123.664C155.491 123.126 155.669 122.496 155.625 121.776C155.373 121.11 155.002 120.649 154.509 120.393C154.017 120.136 153.48 120.048 152.899 120.126C152.265 120.212 151.777 120.433 151.435 120.789C151.091 121.131 150.877 121.537 150.792 122.006C150.719 122.46 150.766 122.904 150.932 123.339C151.097 123.761 151.378 124.099 151.776 124.355C152.187 124.609 152.704 124.7 153.327 124.63Z" fill="#FFF6EA"/>
<path d="M168.323 127.602C167.263 127.809 166.338 127.732 165.547 127.371C164.769 127.007 164.128 126.44 163.624 125.669C163.13 124.882 162.785 123.985 162.588 122.978C162.439 122.219 162.4 121.466 162.471 120.718C162.555 119.968 162.746 119.278 163.044 118.649C163.353 118.005 163.782 117.459 164.333 117.011C164.897 116.561 165.585 116.257 166.396 116.098C167.194 115.941 167.866 115.939 168.412 116.09C168.956 116.228 169.389 116.429 169.712 116.691C170.048 116.952 170.293 117.196 170.447 117.424C170.597 117.639 170.673 117.747 170.673 117.747L168.764 118.508C168.764 118.508 168.688 118.434 168.537 118.287C168.399 118.137 168.169 118.006 167.848 117.892C167.54 117.776 167.131 117.768 166.621 117.868C166.123 117.965 165.666 118.231 165.248 118.666C164.831 119.101 164.549 119.707 164.402 120.483C164.265 121.243 164.366 122.174 164.704 123.277C164.692 123.143 164.718 122.928 164.782 122.63C164.859 122.329 165.001 122.016 165.209 121.69C165.427 121.348 165.733 121.037 166.127 120.756C166.52 120.476 167.025 120.281 167.643 120.174C168.506 120.005 169.248 120.043 169.866 120.289C170.485 120.535 170.974 120.914 171.333 121.428C171.689 121.929 171.901 122.492 171.969 123.117C172.05 123.74 171.969 124.367 171.726 124.999C171.494 125.615 171.098 126.162 170.539 126.638C169.978 127.101 169.239 127.422 168.323 127.602ZM168.114 125.91C168.729 125.79 169.198 125.549 169.521 125.187C169.844 124.824 170.037 124.42 170.099 123.973C170.158 123.513 170.093 123.077 169.904 122.666C169.712 122.242 169.404 121.915 168.978 121.686C168.566 121.454 168.056 121.384 167.449 121.476C166.884 121.573 166.424 121.792 166.07 122.133C165.713 122.461 165.463 122.85 165.32 123.299C165.188 123.732 165.165 124.172 165.252 124.616C165.501 125.193 165.897 125.584 166.44 125.79C166.98 125.983 167.538 126.023 168.114 125.91Z" fill="#FFF6EA"/>
<path d="M181.897 124.47C180.851 124.74 179.923 124.718 179.112 124.404C178.314 124.086 177.641 123.557 177.092 122.818C176.553 122.062 176.155 121.187 175.899 120.192C175.706 119.444 175.623 118.694 175.65 117.943C175.689 117.19 175.84 116.49 176.1 115.845C176.37 115.183 176.767 114.612 177.29 114.133C177.827 113.651 178.495 113.306 179.296 113.1C180.083 112.897 180.754 112.855 181.308 112.973C181.859 113.079 182.303 113.254 182.641 113.497C182.992 113.737 183.251 113.966 183.417 114.185C183.581 114.391 183.662 114.494 183.662 114.494L181.801 115.366C181.801 115.366 181.721 115.297 181.562 115.159C181.415 115.018 181.178 114.9 180.851 114.805C180.537 114.708 180.128 114.723 179.624 114.853C179.133 114.98 178.693 115.272 178.301 115.731C177.91 116.19 177.664 116.811 177.563 117.595C177.472 118.362 177.627 119.285 178.03 120.366C178.01 120.233 178.023 120.017 178.069 119.716C178.128 119.411 178.252 119.09 178.44 118.752C178.638 118.398 178.925 118.07 179.301 117.766C179.677 117.463 180.17 117.239 180.781 117.096C181.633 116.876 182.375 116.87 183.007 117.079C183.639 117.288 184.149 117.638 184.538 118.13C184.923 118.609 185.168 119.159 185.273 119.779C185.39 120.396 185.347 121.027 185.141 121.672C184.945 122.301 184.582 122.869 184.053 123.378C183.519 123.873 182.801 124.237 181.897 124.47ZM181.589 122.794C182.196 122.638 182.65 122.369 182.951 121.989C183.252 121.608 183.42 121.193 183.456 120.743C183.488 120.28 183.398 119.849 183.184 119.45C182.968 119.038 182.641 118.73 182.203 118.526C181.778 118.319 181.265 118.279 180.664 118.406C180.106 118.536 179.659 118.782 179.326 119.144C178.989 119.492 178.762 119.895 178.646 120.352C178.539 120.792 178.542 121.232 178.656 121.671C178.938 122.232 179.356 122.599 179.91 122.773C180.461 122.934 181.021 122.941 181.589 122.794Z" fill="#FFF6EA"/>
<path d="M11 23C1.70497 35.6667 -5.84708 63 11 90" stroke="#AE3C23" stroke-width="2" stroke-linecap="round"/>
<path d="M234 20C243.295 32.6667 250.847 60 234 87" stroke="#AE3C23" stroke-width="2" stroke-linecap="round"/>
</svg>
